<?xml version="1.0" encoding="utf-8" standalone="no"?>
<!DOCTYPE svg PUBLIC "-//W3C//DTD SVG 1.1//EN"
  "http://www.w3.org/Graphics/SVG/1.1/DTD/svg11.dtd">
<!-- Created with matplotlib (http://matplotlib.org/) -->
<svg height="288pt" version="1.1" viewBox="0 0 432 288" width="432pt" xmlns="http://www.w3.org/2000/svg" xmlns:xlink="http://www.w3.org/1999/xlink">
 <defs>
  <style type="text/css">
*{stroke-linecap:butt;stroke-linejoin:round;}
  </style>
 </defs>
 <g id="figure_1">
  <g id="patch_1">
   <path d="
M0 288
L432 288
L432 0
L0 0
z
" style="fill:#ffffff;"/>
  </g>
  <g id="axes_1">
   <g id="patch_2">
    <path d="
M54 252
L388.8 252
L388.8 28.8
L54 28.8
z
" style="fill:#ffffff;"/>
   </g>
   <g id="LineCollection_1">
    <defs>
     <path d="
M109.803 -203.321
L95.85 -189.974" id="C0_0_120863173f"/>
     <path d="
M109.803 -203.321
L149.34 -203.3" id="C0_1_29e531e22a"/>
     <path d="
M95.85 -189.974
L113.617 -174.091" id="C0_2_8d8a526b31"/>
     <path d="
M113.617 -174.091
L101.02 -157.204" id="C0_3_c21ee1e634"/>
     <path d="
M113.617 -174.091
L162.254 -173.79" id="C0_4_00b5a89032"/>
     <path d="
M101.02 -157.204
L115.904 -141.282" id="C0_5_f3777e0d4c"/>
     <path d="
M115.904 -141.282
L152.294 -130.779" id="C0_6_4508d4003c"/>
     <path d="
M152.294 -130.779
L179.011 -152.809" id="C0_7_0d587de9d5"/>
     <path d="
M152.294 -130.779
L157.126 -106.129" id="C0_8_260f99afda"/>
     <path d="
M157.126 -106.129
L138.154 -80.8506" id="C0_9_1cbfbe5790"/>
     <path d="
M157.126 -106.129
L195.205 -118.572" id="C0_a_8e4a11545e"/>
     <path d="
M195.205 -118.572
L220.397 -136.874" id="C0_b_60f440dc07"/>
     <path d="
M220.397 -136.874
L229.058 -158.558" id="C0_c_14562988a9"/>
     <path d="
M229.058 -158.558
L179.011 -152.809" id="C0_d_22635529db"/>
     <path d="
M229.058 -158.558
L261.361 -181.99" id="C0_e_ecc10190c2"/>
     <path d="
M179.011 -152.809
L162.254 -173.79" id="C0_f_9121badd47"/>
     <path d="
M162.254 -173.79
L188.522 -193.256" id="C0_10_3f22d11523"/>
     <path d="
M188.522 -193.256
L149.34 -203.3" id="C0_11_2562136f09"/>
     <path d="
M188.522 -193.256
L244.457 -199.649" id="C0_12_7565573a81"/>
     <path d="
M244.457 -199.649
L282.027 -216.247" id="C0_13_06828aab23"/>
     <path d="
M244.457 -199.649
L261.361 -181.99" id="C0_14_6b353c90ae"/>
     <path d="
M261.361 -181.99
L301.908 -196.442" id="C0_15_fefde2aec6"/>
     <path d="
M301.908 -196.442
L325.333 -212.52" id="C0_16_f8a999ef74"/>
     <path d="
M325.333 -212.52
L320.968 -227.314" id="C0_17_224c899a30"/>
     <path d="
M320.968 -227.314
L282.027 -216.247" id="C0_18_e63f740c35"/>
     <path d="
M138.154 -80.8506
L121.739 -67.8857" id="C0_19_c3d7710433"/>
     <path d="
M138.154 -80.8506
L145.331 -72.2563" id="C0_1a_523336f6a8"/>
    </defs>
    <g clip-path="url(#p124b8dd147)">
     <use style="fill:none;stroke:#000000;stroke-opacity:0.4;" x="0.0" xlink:href="#C0_0_120863173f" y="288.0"/>
    </g>
    <g clip-path="url(#p124b8dd147)">
     <use style="fill:none;stroke:#000000;stroke-opacity:0.4;" x="0.0" xlink:href="#C0_1_29e531e22a" y="288.0"/>
    </g>
    <g clip-path="url(#p124b8dd147)">
     <use style="fill:none;stroke:#000000;stroke-opacity:0.4;" x="0.0" xlink:href="#C0_2_8d8a526b31" y="288.0"/>
    </g>
    <g clip-path="url(#p124b8dd147)">
     <use style="fill:none;stroke:#000000;stroke-opacity:0.4;" x="0.0" xlink:href="#C0_3_c21ee1e634" y="288.0"/>
    </g>
    <g clip-path="url(#p124b8dd147)">
     <use style="fill:none;stroke:#000000;stroke-opacity:0.4;" x="0.0" xlink:href="#C0_4_00b5a89032" y="288.0"/>
    </g>
    <g clip-path="url(#p124b8dd147)">
     <use style="fill:none;stroke:#000000;stroke-opacity:0.4;" x="0.0" xlink:href="#C0_5_f3777e0d4c" y="288.0"/>
    </g>
    <g clip-path="url(#p124b8dd147)">
     <use style="fill:none;stroke:#000000;stroke-opacity:0.4;" x="0.0" xlink:href="#C0_6_4508d4003c" y="288.0"/>
    </g>
    <g clip-path="url(#p124b8dd147)">
     <use style="fill:none;stroke:#000000;stroke-opacity:0.4;" x="0.0" xlink:href="#C0_7_0d587de9d5" y="288.0"/>
    </g>
    <g clip-path="url(#p124b8dd147)">
     <use style="fill:none;stroke:#000000;stroke-opacity:0.4;" x="0.0" xlink:href="#C0_8_260f99afda" y="288.0"/>
    </g>
    <g clip-path="url(#p124b8dd147)">
     <use style="fill:none;stroke:#000000;stroke-opacity:0.4;" x="0.0" xlink:href="#C0_9_1cbfbe5790" y="288.0"/>
    </g>
    <g clip-path="url(#p124b8dd147)">
     <use style="fill:none;stroke:#000000;stroke-opacity:0.4;" x="0.0" xlink:href="#C0_a_8e4a11545e" y="288.0"/>
    </g>
    <g clip-path="url(#p124b8dd147)">
     <use style="fill:none;stroke:#000000;stroke-opacity:0.4;" x="0.0" xlink:href="#C0_b_60f440dc07" y="288.0"/>
    </g>
    <g clip-path="url(#p124b8dd147)">
     <use style="fill:none;stroke:#000000;stroke-opacity:0.4;" x="0.0" xlink:href="#C0_c_14562988a9" y="288.0"/>
    </g>
    <g clip-path="url(#p124b8dd147)">
     <use style="fill:none;stroke:#000000;stroke-opacity:0.4;" x="0.0" xlink:href="#C0_d_22635529db" y="288.0"/>
    </g>
    <g clip-path="url(#p124b8dd147)">
     <use style="fill:none;stroke:#000000;stroke-opacity:0.4;" x="0.0" xlink:href="#C0_e_ecc10190c2" y="288.0"/>
    </g>
    <g clip-path="url(#p124b8dd147)">
     <use style="fill:none;stroke:#000000;stroke-opacity:0.4;" x="0.0" xlink:href="#C0_f_9121badd47" y="288.0"/>
    </g>
    <g clip-path="url(#p124b8dd147)">
     <use style="fill:none;stroke:#000000;stroke-opacity:0.4;" x="0.0" xlink:href="#C0_10_3f22d11523" y="288.0"/>
    </g>
    <g clip-path="url(#p124b8dd147)">
     <use style="fill:none;stroke:#000000;stroke-opacity:0.4;" x="0.0" xlink:href="#C0_11_2562136f09" y="288.0"/>
    </g>
    <g clip-path="url(#p124b8dd147)">
     <use style="fill:none;stroke:#000000;stroke-opacity:0.4;" x="0.0" xlink:href="#C0_12_7565573a81" y="288.0"/>
    </g>
    <g clip-path="url(#p124b8dd147)">
     <use style="fill:none;stroke:#000000;stroke-opacity:0.4;" x="0.0" xlink:href="#C0_13_06828aab23" y="288.0"/>
    </g>
    <g clip-path="url(#p124b8dd147)">
     <use style="fill:none;stroke:#000000;stroke-opacity:0.4;" x="0.0" xlink:href="#C0_14_6b353c90ae" y="288.0"/>
    </g>
    <g clip-path="url(#p124b8dd147)">
     <use style="fill:none;stroke:#000000;stroke-opacity:0.4;" x="0.0" xlink:href="#C0_15_fefde2aec6" y="288.0"/>
    </g>
    <g clip-path="url(#p124b8dd147)">
     <use style="fill:none;stroke:#000000;stroke-opacity:0.4;" x="0.0" xlink:href="#C0_16_f8a999ef74" y="288.0"/>
    </g>
    <g clip-path="url(#p124b8dd147)">
     <use style="fill:none;stroke:#000000;stroke-opacity:0.4;" x="0.0" xlink:href="#C0_17_224c899a30" y="288.0"/>
    </g>
    <g clip-path="url(#p124b8dd147)">
     <use style="fill:none;stroke:#000000;stroke-opacity:0.4;" x="0.0" xlink:href="#C0_18_e63f740c35" y="288.0"/>
    </g>
    <g clip-path="url(#p124b8dd147)">
     <use style="fill:none;stroke:#000000;stroke-opacity:0.4;" x="0.0" xlink:href="#C0_19_c3d7710433" y="288.0"/>
    </g>
    <g clip-path="url(#p124b8dd147)">
     <use style="fill:none;stroke:#000000;stroke-opacity:0.4;" x="0.0" xlink:href="#C0_1a_523336f6a8" y="288.0"/>
    </g>
   </g>
   <g id="PathCollection_1">
    <defs>
     <path d="
M0 3.16228
C0.838646 3.16228 1.64306 2.82908 2.23607 2.23607
C2.82908 1.64306 3.16228 0.838646 3.16228 0
C3.16228 -0.838646 2.82908 -1.64306 2.23607 -2.23607
C1.64306 -2.82908 0.838646 -3.16228 0 -3.16228
C-0.838646 -3.16228 -1.64306 -2.82908 -2.23607 -2.23607
C-2.82908 -1.64306 -3.16228 -0.838646 -3.16228 0
C-3.16228 0.838646 -2.82908 1.64306 -2.23607 2.23607
C-1.64306 2.82908 -0.838646 3.16228 0 3.16228
z
" id="m8dfb7d7d70" style="stroke:#000000;"/>
    </defs>
    <g clip-path="url(#p124b8dd147)">
     <use style="fill:#ff0000;stroke:#000000;" x="109.802553882" xlink:href="#m8dfb7d7d70" y="84.6787119643"/>
     <use style="fill:#ff0000;stroke:#000000;" x="95.85" xlink:href="#m8dfb7d7d70" y="98.0258377857"/>
     <use style="fill:#ff0000;stroke:#000000;" x="113.616558908" xlink:href="#m8dfb7d7d70" y="113.909120717"/>
     <use style="fill:#ff0000;stroke:#000000;" x="101.020090273" xlink:href="#m8dfb7d7d70" y="130.796205987"/>
     <use style="fill:#ff0000;stroke:#000000;" x="115.904306055" xlink:href="#m8dfb7d7d70" y="146.717817766"/>
     <use style="fill:#ff0000;stroke:#000000;" x="152.294481992" xlink:href="#m8dfb7d7d70" y="157.221207332"/>
     <use style="fill:#ff0000;stroke:#000000;" x="157.12609965" xlink:href="#m8dfb7d7d70" y="181.87075814"/>
     <use style="fill:#ff0000;stroke:#000000;" x="195.204889098" xlink:href="#m8dfb7d7d70" y="169.428209241"/>
     <use style="fill:#ff0000;stroke:#000000;" x="220.396885857" xlink:href="#m8dfb7d7d70" y="151.126359545"/>
     <use style="fill:#ff0000;stroke:#000000;" x="229.057631943" xlink:href="#m8dfb7d7d70" y="129.442066231"/>
     <use style="fill:#ff0000;stroke:#000000;" x="179.01091099" xlink:href="#m8dfb7d7d70" y="135.190659662"/>
     <use style="fill:#ff0000;stroke:#000000;" x="162.254363314" xlink:href="#m8dfb7d7d70" y="114.21049217"/>
     <use style="fill:#ff0000;stroke:#000000;" x="188.522464078" xlink:href="#m8dfb7d7d70" y="94.7436104312"/>
     <use style="fill:#ff0000;stroke:#000000;" x="149.339724098" xlink:href="#m8dfb7d7d70" y="84.6997395159"/>
     <use style="fill:#ff0000;stroke:#000000;" x="244.456777552" xlink:href="#m8dfb7d7d70" y="88.3510617771"/>
     <use style="fill:#ff0000;stroke:#000000;" x="261.361212276" xlink:href="#m8dfb7d7d70" y="106.009929472"/>
     <use style="fill:#ff0000;stroke:#000000;" x="301.907528206" xlink:href="#m8dfb7d7d70" y="91.5584712988"/>
     <use style="fill:#ff0000;stroke:#000000;" x="325.332887679" xlink:href="#m8dfb7d7d70" y="75.4795970797"/>
     <use style="fill:#ff0000;stroke:#000000;" x="320.967898095" xlink:href="#m8dfb7d7d70" y="60.6857142857"/>
     <use style="fill:#ff0000;stroke:#000000;" x="282.027435056" xlink:href="#m8dfb7d7d70" y="71.7528188266"/>
     <use style="fill:#ff0000;stroke:#000000;" x="138.154230582" xlink:href="#m8dfb7d7d70" y="207.149358618"/>
     <use style="fill:#ff0000;stroke:#000000;" x="121.73918199" xlink:href="#m8dfb7d7d70" y="220.114285714"/>
     <use style="fill:#ff0000;stroke:#000000;" x="145.331457378" xlink:href="#m8dfb7d7d70" y="215.74369028"/>
    </g>
   </g>
   <g id="patch_3">
    <path d="
M54 28.8
L388.8 28.8" style="fill:none;stroke:#000000;stroke-linecap:square;stroke-linejoin:miter;"/>
   </g>
   <g id="patch_4">
    <path d="
M388.8 252
L388.8 28.8" style="fill:none;stroke:#000000;stroke-linecap:square;stroke-linejoin:miter;"/>
   </g>
   <g id="patch_5">
    <path d="
M54 252
L388.8 252" style="fill:none;stroke:#000000;stroke-linecap:square;stroke-linejoin:miter;"/>
   </g>
   <g id="patch_6">
    <path d="
M54 252
L54 28.8" style="fill:none;stroke:#000000;stroke-linecap:square;stroke-linejoin:miter;"/>
   </g>
  </g>
 </g>
 <defs>
  <clipPath id="p124b8dd147">
   <rect height="223.2" width="334.8" x="54.0" y="28.8"/>
  </clipPath>
 </defs>
</svg>
