<?xml version="1.0" encoding="utf-8" standalone="no"?>
<!DOCTYPE svg PUBLIC "-//W3C//DTD SVG 1.1//EN"
  "http://www.w3.org/Graphics/SVG/1.1/DTD/svg11.dtd">
<!-- Created with matplotlib (http://matplotlib.org/) -->
<svg height="288pt" version="1.1" viewBox="0 0 432 288" width="432pt" xmlns="http://www.w3.org/2000/svg" xmlns:xlink="http://www.w3.org/1999/xlink">
 <defs>
  <style type="text/css">
*{stroke-linecap:butt;stroke-linejoin:round;stroke-miterlimit:100000;}
  </style>
 </defs>
 <g id="figure_1">
  <g id="patch_1">
   <path d="M 0 288 
L 432 288 
L 432 0 
L 0 0 
z
" style="fill:#ffffff;"/>
  </g>
  <g id="axes_1">
   <g id="patch_2">
    <path d="M 54 252 
L 388.8 252 
L 388.8 28.8 
L 54 28.8 
z
" style="fill:#ffffff;"/>
   </g>
   <g id="LineCollection_1">
    <path clip-path="url(#p51a516e676)" d="M 328.008612 171.650496 
L 324.894855 157.327533 
" style="fill:none;stroke:#000000;stroke-opacity:0.4;"/>
    <path clip-path="url(#p51a516e676)" d="M 328.008612 171.650496 
L 286.29762 177.715668 
" style="fill:none;stroke:#000000;stroke-opacity:0.4;"/>
    <path clip-path="url(#p51a516e676)" d="M 324.894855 157.327533 
L 285.206459 146.055677 
" style="fill:none;stroke:#000000;stroke-opacity:0.4;"/>
    <path clip-path="url(#p51a516e676)" d="M 285.206459 146.055677 
L 274.831073 128.985474 
" style="fill:none;stroke:#000000;stroke-opacity:0.4;"/>
    <path clip-path="url(#p51a516e676)" d="M 285.206459 146.055677 
L 234.01056 153.520944 
" style="fill:none;stroke:#000000;stroke-opacity:0.4;"/>
    <path clip-path="url(#p51a516e676)" d="M 274.831073 128.985474 
L 236.598012 117.867793 
" style="fill:none;stroke:#000000;stroke-opacity:0.4;"/>
    <path clip-path="url(#p51a516e676)" d="M 236.598012 117.867793 
L 183.968213 115.523112 
" style="fill:none;stroke:#000000;stroke-opacity:0.4;"/>
    <path clip-path="url(#p51a516e676)" d="M 183.968213 115.523112 
L 186.690187 138.617613 
" style="fill:none;stroke:#000000;stroke-opacity:0.4;"/>
    <path clip-path="url(#p51a516e676)" d="M 183.968213 115.523112 
L 141.720667 96.387828 
" style="fill:none;stroke:#000000;stroke-opacity:0.4;"/>
    <path clip-path="url(#p51a516e676)" d="M 141.720667 96.387828 
L 122.93962 73.041691 
" style="fill:none;stroke:#000000;stroke-opacity:0.4;"/>
    <path clip-path="url(#p51a516e676)" d="M 141.720667 96.387828 
L 118.336904 112.387924 
" style="fill:none;stroke:#000000;stroke-opacity:0.4;"/>
    <path clip-path="url(#p51a516e676)" d="M 118.336904 112.387924 
L 117.974641 131.619218 
" style="fill:none;stroke:#000000;stroke-opacity:0.4;"/>
    <path clip-path="url(#p51a516e676)" d="M 117.974641 131.619218 
L 140.308417 150.88418 
" style="fill:none;stroke:#000000;stroke-opacity:0.4;"/>
    <path clip-path="url(#p51a516e676)" d="M 140.308417 150.88418 
L 186.690187 138.617613 
" style="fill:none;stroke:#000000;stroke-opacity:0.4;"/>
    <path clip-path="url(#p51a516e676)" d="M 140.308417 150.88418 
L 136.555478 175.642928 
" style="fill:none;stroke:#000000;stroke-opacity:0.4;"/>
    <path clip-path="url(#p51a516e676)" d="M 186.690187 138.617613 
L 234.01056 153.520944 
" style="fill:none;stroke:#000000;stroke-opacity:0.4;"/>
    <path clip-path="url(#p51a516e676)" d="M 234.01056 153.520944 
L 232.182224 174.628135 
" style="fill:none;stroke:#000000;stroke-opacity:0.4;"/>
    <path clip-path="url(#p51a516e676)" d="M 232.182224 174.628135 
L 286.29762 177.715668 
" style="fill:none;stroke:#000000;stroke-opacity:0.4;"/>
    <path clip-path="url(#p51a516e676)" d="M 232.182224 174.628135 
L 179.322864 187.612328 
" style="fill:none;stroke:#000000;stroke-opacity:0.4;"/>
    <path clip-path="url(#p51a516e676)" d="M 179.322864 187.612328 
L 159.133487 206.786629 
" style="fill:none;stroke:#000000;stroke-opacity:0.4;"/>
    <path clip-path="url(#p51a516e676)" d="M 179.322864 187.612328 
L 136.555478 175.642928 
" style="fill:none;stroke:#000000;stroke-opacity:0.4;"/>
    <path clip-path="url(#p51a516e676)" d="M 136.555478 175.642928 
L 108.778907 193.386679 
" style="fill:none;stroke:#000000;stroke-opacity:0.4;"/>
    <path clip-path="url(#p51a516e676)" d="M 108.778907 193.386679 
L 102.319068 210.124866 
" style="fill:none;stroke:#000000;stroke-opacity:0.4;"/>
    <path clip-path="url(#p51a516e676)" d="M 102.319068 210.124866 
L 129.093586 220.114286 
" style="fill:none;stroke:#000000;stroke-opacity:0.4;"/>
    <path clip-path="url(#p51a516e676)" d="M 129.093586 220.114286 
L 159.133487 206.786629 
" style="fill:none;stroke:#000000;stroke-opacity:0.4;"/>
    <path clip-path="url(#p51a516e676)" d="M 122.93962 73.041691 
L 101.828571 66.611213 
" style="fill:none;stroke:#000000;stroke-opacity:0.4;"/>
    <path clip-path="url(#p51a516e676)" d="M 122.93962 73.041691 
L 123.394522 60.685714 
" style="fill:none;stroke:#000000;stroke-opacity:0.4;"/>
   </g>
   <g id="PathCollection_1">
    <defs>
     <path d="M 0 5.59017 
C 1.48253 5.59017 2.90454 5.001154 3.952847 3.952847 
C 5.001154 2.90454 5.59017 1.48253 5.59017 0 
C 5.59017 -1.48253 5.001154 -2.90454 3.952847 -3.952847 
C 2.90454 -5.001154 1.48253 -5.59017 0 -5.59017 
C -1.48253 -5.59017 -2.90454 -5.001154 -3.952847 -3.952847 
C -5.001154 -2.90454 -5.59017 -1.48253 -5.59017 0 
C -5.59017 1.48253 -5.001154 2.90454 -3.952847 3.952847 
C -2.90454 5.001154 -1.48253 5.59017 0 5.59017 
z
" id="mfe976fe889" style="stroke:#000000;"/>
    </defs>
    <g clip-path="url(#p51a516e676)">
     <use style="fill:#ff6600;stroke:#000000;" x="328.008611685" xlink:href="#mfe976fe889" y="171.650495905"/>
     <use style="fill:#ff6600;stroke:#000000;" x="324.894854739" xlink:href="#mfe976fe889" y="157.327533283"/>
     <use style="fill:#ff6600;stroke:#000000;" x="285.206459041" xlink:href="#mfe976fe889" y="146.055677212"/>
     <use style="fill:#ff6600;stroke:#000000;" x="274.831072571" xlink:href="#mfe976fe889" y="128.985474042"/>
     <use style="fill:#ff6600;stroke:#000000;" x="236.598011652" xlink:href="#mfe976fe889" y="117.867792726"/>
     <use style="fill:#ff6600;stroke:#000000;" x="183.968212512" xlink:href="#mfe976fe889" y="115.523112315"/>
     <use style="fill:#ff6600;stroke:#000000;" x="141.72066668" xlink:href="#mfe976fe889" y="96.3878276926"/>
     <use style="fill:#ff6600;stroke:#000000;" x="118.336904167" xlink:href="#mfe976fe889" y="112.387923982"/>
     <use style="fill:#ff6600;stroke:#000000;" x="117.974641411" xlink:href="#mfe976fe889" y="131.619218263"/>
     <use style="fill:#ff6600;stroke:#000000;" x="140.308417034" xlink:href="#mfe976fe889" y="150.88418029"/>
     <use style="fill:#ff6600;stroke:#000000;" x="186.690186723" xlink:href="#mfe976fe889" y="138.617613295"/>
     <use style="fill:#ff6600;stroke:#000000;" x="234.010560197" xlink:href="#mfe976fe889" y="153.520943713"/>
     <use style="fill:#ff6600;stroke:#000000;" x="232.182224185" xlink:href="#mfe976fe889" y="174.628135267"/>
     <use style="fill:#ff6600;stroke:#000000;" x="286.297620184" xlink:href="#mfe976fe889" y="177.715668076"/>
     <use style="fill:#ff6600;stroke:#000000;" x="179.322863575" xlink:href="#mfe976fe889" y="187.612328108"/>
     <use style="fill:#ff6600;stroke:#000000;" x="136.555477909" xlink:href="#mfe976fe889" y="175.642927592"/>
     <use style="fill:#ff6600;stroke:#000000;" x="108.77890742" xlink:href="#mfe976fe889" y="193.386679061"/>
     <use style="fill:#ff6600;stroke:#000000;" x="102.319067785" xlink:href="#mfe976fe889" y="210.124865605"/>
     <use style="fill:#ff6600;stroke:#000000;" x="129.093585929" xlink:href="#mfe976fe889" y="220.114285714"/>
     <use style="fill:#ff6600;stroke:#000000;" x="159.133486641" xlink:href="#mfe976fe889" y="206.786628503"/>
     <use style="fill:#ff6600;stroke:#000000;" x="122.939620393" xlink:href="#mfe976fe889" y="73.0416906352"/>
     <use style="fill:#ff6600;stroke:#000000;" x="101.828571429" xlink:href="#mfe976fe889" y="66.6112131104"/>
     <use style="fill:#ff6600;stroke:#000000;" x="123.394522239" xlink:href="#mfe976fe889" y="60.6857142857"/>
    </g>
   </g>
   <g id="patch_3">
    <path d="M 54 28.8 
L 388.8 28.8 
" style="fill:none;stroke:#000000;stroke-linecap:square;stroke-linejoin:miter;"/>
   </g>
   <g id="patch_4">
    <path d="M 388.8 252 
L 388.8 28.8 
" style="fill:none;stroke:#000000;stroke-linecap:square;stroke-linejoin:miter;"/>
   </g>
   <g id="patch_5">
    <path d="M 54 252 
L 388.8 252 
" style="fill:none;stroke:#000000;stroke-linecap:square;stroke-linejoin:miter;"/>
   </g>
   <g id="patch_6">
    <path d="M 54 252 
L 54 28.8 
" style="fill:none;stroke:#000000;stroke-linecap:square;stroke-linejoin:miter;"/>
   </g>
   <g id="text_1">
    <g clip-path="url(#p51a516e676)">
     <!-- 0:3 -->
     <defs>
      <path d="M 11.1875 54.6875 
L 28.8125 54.6875 
L 28.8125 35.796875 
L 11.1875 35.796875 
z
M 11.1875 18.890625 
L 28.8125 18.890625 
L 28.8125 0 
L 11.1875 0 
z
" id="BitstreamVeraSans-Bold-3a"/>
      <path d="M 46 36.53125 
Q 46 50.203125 43.4375 55.78125 
Q 40.875 61.375 34.8125 61.375 
Q 28.765625 61.375 26.171875 55.78125 
Q 23.578125 50.203125 23.578125 36.53125 
Q 23.578125 22.703125 26.171875 17.03125 
Q 28.765625 11.375 34.8125 11.375 
Q 40.828125 11.375 43.40625 17.03125 
Q 46 22.703125 46 36.53125 
M 64.796875 36.375 
Q 64.796875 18.265625 56.984375 8.421875 
Q 49.171875 -1.421875 34.8125 -1.421875 
Q 20.40625 -1.421875 12.59375 8.421875 
Q 4.78125 18.265625 4.78125 36.375 
Q 4.78125 54.546875 12.59375 64.375 
Q 20.40625 74.21875 34.8125 74.21875 
Q 49.171875 74.21875 56.984375 64.375 
Q 64.796875 54.546875 64.796875 36.375 
" id="BitstreamVeraSans-Bold-30"/>
      <path d="M 46.578125 39.3125 
Q 53.953125 37.40625 57.78125 32.6875 
Q 61.625 27.984375 61.625 20.703125 
Q 61.625 9.859375 53.3125 4.21875 
Q 45.015625 -1.421875 29.109375 -1.421875 
Q 23.484375 -1.421875 17.84375 -0.515625 
Q 12.203125 0.390625 6.6875 2.203125 
L 6.6875 16.703125 
Q 11.96875 14.0625 17.15625 12.71875 
Q 22.359375 11.375 27.390625 11.375 
Q 34.859375 11.375 38.84375 13.953125 
Q 42.828125 16.546875 42.828125 21.390625 
Q 42.828125 26.375 38.75 28.9375 
Q 34.671875 31.5 26.703125 31.5 
L 19.1875 31.5 
L 19.1875 43.609375 
L 27.09375 43.609375 
Q 34.1875 43.609375 37.640625 45.828125 
Q 41.109375 48.046875 41.109375 52.59375 
Q 41.109375 56.78125 37.734375 59.078125 
Q 34.375 61.375 28.21875 61.375 
Q 23.6875 61.375 19.046875 60.34375 
Q 14.40625 59.328125 9.8125 57.328125 
L 9.8125 71.09375 
Q 15.375 72.65625 20.84375 73.4375 
Q 26.3125 74.21875 31.59375 74.21875 
Q 45.796875 74.21875 52.84375 69.546875 
Q 59.90625 64.890625 59.90625 55.515625 
Q 59.90625 49.125 56.53125 45.046875 
Q 53.171875 40.96875 46.578125 39.3125 
" id="BitstreamVeraSans-Bold-33"/>
     </defs>
     <g style="fill:#3f3d99;" transform="translate(319.94728356 174.133933405)scale(0.09 -0.09)">
      <use xlink:href="#BitstreamVeraSans-Bold-30"/>
      <use x="69.580078125" xlink:href="#BitstreamVeraSans-Bold-3a"/>
      <use x="109.5703125" xlink:href="#BitstreamVeraSans-Bold-33"/>
     </g>
    </g>
   </g>
   <g id="text_2">
    <g clip-path="url(#p51a516e676)">
     <!-- 1:3 -->
     <defs>
      <path d="M 11.71875 12.984375 
L 28.328125 12.984375 
L 28.328125 60.109375 
L 11.28125 56.59375 
L 11.28125 69.390625 
L 28.21875 72.90625 
L 46.09375 72.90625 
L 46.09375 12.984375 
L 62.703125 12.984375 
L 62.703125 0 
L 11.71875 0 
z
" id="BitstreamVeraSans-Bold-31"/>
     </defs>
     <g style="fill:#3f3d99;" transform="translate(316.833526614 159.810970783)scale(0.09 -0.09)">
      <use xlink:href="#BitstreamVeraSans-Bold-31"/>
      <use x="69.580078125" xlink:href="#BitstreamVeraSans-Bold-3a"/>
      <use x="109.5703125" xlink:href="#BitstreamVeraSans-Bold-33"/>
     </g>
    </g>
   </g>
   <g id="text_3">
    <g clip-path="url(#p51a516e676)">
     <!-- 2:3 -->
     <defs>
      <path d="M 28.8125 13.8125 
L 60.890625 13.8125 
L 60.890625 0 
L 7.90625 0 
L 7.90625 13.8125 
L 34.515625 37.3125 
Q 38.09375 40.53125 39.796875 43.609375 
Q 41.5 46.6875 41.5 50 
Q 41.5 55.125 38.0625 58.25 
Q 34.625 61.375 28.90625 61.375 
Q 24.515625 61.375 19.28125 59.5 
Q 14.0625 57.625 8.109375 53.90625 
L 8.109375 69.921875 
Q 14.453125 72.015625 20.65625 73.109375 
Q 26.859375 74.21875 32.8125 74.21875 
Q 45.90625 74.21875 53.15625 68.453125 
Q 60.40625 62.703125 60.40625 52.390625 
Q 60.40625 46.4375 57.328125 41.28125 
Q 54.25 36.140625 44.390625 27.484375 
z
" id="BitstreamVeraSans-Bold-32"/>
     </defs>
     <g style="fill:#3f3d99;" transform="translate(277.145130916 148.539114712)scale(0.09 -0.09)">
      <use xlink:href="#BitstreamVeraSans-Bold-32"/>
      <use x="69.580078125" xlink:href="#BitstreamVeraSans-Bold-3a"/>
      <use x="109.5703125" xlink:href="#BitstreamVeraSans-Bold-33"/>
     </g>
    </g>
   </g>
   <g id="text_4">
    <g clip-path="url(#p51a516e676)">
     <!-- 3:3 -->
     <g style="fill:#3f3d99;" transform="translate(266.769744446 131.468911542)scale(0.09 -0.09)">
      <use xlink:href="#BitstreamVeraSans-Bold-33"/>
      <use x="69.580078125" xlink:href="#BitstreamVeraSans-Bold-3a"/>
      <use x="109.5703125" xlink:href="#BitstreamVeraSans-Bold-33"/>
     </g>
    </g>
   </g>
   <g id="text_5">
    <g clip-path="url(#p51a516e676)">
     <!-- 4:3 -->
     <defs>
      <path d="M 36.8125 57.421875 
L 16.21875 26.90625 
L 36.8125 26.90625 
z
M 33.6875 72.90625 
L 54.59375 72.90625 
L 54.59375 26.90625 
L 64.984375 26.90625 
L 64.984375 13.28125 
L 54.59375 13.28125 
L 54.59375 0 
L 36.8125 0 
L 36.8125 13.28125 
L 4.5 13.28125 
L 4.5 29.390625 
z
" id="BitstreamVeraSans-Bold-34"/>
     </defs>
     <g style="fill:#3f3d99;" transform="translate(228.536683527 120.351230226)scale(0.09 -0.09)">
      <use xlink:href="#BitstreamVeraSans-Bold-34"/>
      <use x="69.580078125" xlink:href="#BitstreamVeraSans-Bold-3a"/>
      <use x="109.5703125" xlink:href="#BitstreamVeraSans-Bold-33"/>
     </g>
    </g>
   </g>
   <g id="text_6">
    <g clip-path="url(#p51a516e676)">
     <!-- 5:3 -->
     <defs>
      <path d="M 10.59375 72.90625 
L 57.328125 72.90625 
L 57.328125 59.078125 
L 25.59375 59.078125 
L 25.59375 47.796875 
Q 27.734375 48.390625 29.90625 48.703125 
Q 32.078125 49.03125 34.421875 49.03125 
Q 47.75 49.03125 55.171875 42.359375 
Q 62.59375 35.6875 62.59375 23.78125 
Q 62.59375 11.96875 54.515625 5.265625 
Q 46.4375 -1.421875 32.078125 -1.421875 
Q 25.875 -1.421875 19.796875 -0.21875 
Q 13.71875 0.984375 7.71875 3.421875 
L 7.71875 18.21875 
Q 13.671875 14.796875 19.015625 13.078125 
Q 24.359375 11.375 29.109375 11.375 
Q 35.9375 11.375 39.859375 14.71875 
Q 43.796875 18.0625 43.796875 23.78125 
Q 43.796875 29.546875 39.859375 32.859375 
Q 35.9375 36.1875 29.109375 36.1875 
Q 25.046875 36.1875 20.453125 35.125 
Q 15.875 34.078125 10.59375 31.890625 
z
" id="BitstreamVeraSans-Bold-35"/>
     </defs>
     <g style="fill:#3f3d99;" transform="translate(175.906884387 118.006549815)scale(0.09 -0.09)">
      <use xlink:href="#BitstreamVeraSans-Bold-35"/>
      <use x="69.580078125" xlink:href="#BitstreamVeraSans-Bold-3a"/>
      <use x="109.5703125" xlink:href="#BitstreamVeraSans-Bold-33"/>
     </g>
    </g>
   </g>
   <g id="text_7">
    <g clip-path="url(#p51a516e676)">
     <!-- 6:3 -->
     <defs>
      <path d="M 36.1875 35.984375 
Q 31.25 35.984375 28.78125 32.78125 
Q 26.3125 29.59375 26.3125 23.1875 
Q 26.3125 16.796875 28.78125 13.59375 
Q 31.25 10.40625 36.1875 10.40625 
Q 41.15625 10.40625 43.625 13.59375 
Q 46.09375 16.796875 46.09375 23.1875 
Q 46.09375 29.59375 43.625 32.78125 
Q 41.15625 35.984375 36.1875 35.984375 
M 59.421875 71 
L 59.421875 57.515625 
Q 54.78125 59.71875 50.671875 60.765625 
Q 46.578125 61.8125 42.671875 61.8125 
Q 34.28125 61.8125 29.59375 57.140625 
Q 24.90625 52.484375 24.125 43.3125 
Q 27.34375 45.703125 31.09375 46.890625 
Q 34.859375 48.09375 39.3125 48.09375 
Q 50.484375 48.09375 57.34375 41.546875 
Q 64.203125 35.015625 64.203125 24.421875 
Q 64.203125 12.703125 56.53125 5.640625 
Q 48.875 -1.421875 35.984375 -1.421875 
Q 21.78125 -1.421875 13.984375 8.171875 
Q 6.203125 17.78125 6.203125 35.40625 
Q 6.203125 53.46875 15.3125 63.796875 
Q 24.421875 74.125 40.28125 74.125 
Q 45.3125 74.125 50.046875 73.34375 
Q 54.78125 72.5625 59.421875 71 
" id="BitstreamVeraSans-Bold-36"/>
     </defs>
     <g style="fill:#3f3d99;" transform="translate(133.659338555 98.8712651926)scale(0.09 -0.09)">
      <use xlink:href="#BitstreamVeraSans-Bold-36"/>
      <use x="69.580078125" xlink:href="#BitstreamVeraSans-Bold-3a"/>
      <use x="109.5703125" xlink:href="#BitstreamVeraSans-Bold-33"/>
     </g>
    </g>
   </g>
   <g id="text_8">
    <g clip-path="url(#p51a516e676)">
     <!-- 7:3 -->
     <defs>
      <path d="M 6.6875 72.90625 
L 61.625 72.90625 
L 61.625 62.3125 
L 33.203125 0 
L 14.890625 0 
L 41.796875 59.078125 
L 6.6875 59.078125 
z
" id="BitstreamVeraSans-Bold-37"/>
     </defs>
     <g style="fill:#3f3d99;" transform="translate(110.275576042 114.871361482)scale(0.09 -0.09)">
      <use xlink:href="#BitstreamVeraSans-Bold-37"/>
      <use x="69.580078125" xlink:href="#BitstreamVeraSans-Bold-3a"/>
      <use x="109.5703125" xlink:href="#BitstreamVeraSans-Bold-33"/>
     </g>
    </g>
   </g>
   <g id="text_9">
    <g clip-path="url(#p51a516e676)">
     <!-- 8:3 -->
     <defs>
      <path d="M 34.8125 32.625 
Q 29.546875 32.625 26.703125 29.734375 
Q 23.875 26.859375 23.875 21.484375 
Q 23.875 16.109375 26.703125 13.25 
Q 29.546875 10.40625 34.8125 10.40625 
Q 40.046875 10.40625 42.828125 13.25 
Q 45.609375 16.109375 45.609375 21.484375 
Q 45.609375 26.90625 42.828125 29.765625 
Q 40.046875 32.625 34.8125 32.625 
M 21.09375 38.8125 
Q 14.453125 40.828125 11.078125 44.96875 
Q 7.71875 49.125 7.71875 55.328125 
Q 7.71875 64.546875 14.59375 69.375 
Q 21.484375 74.21875 34.8125 74.21875 
Q 48.046875 74.21875 54.921875 69.40625 
Q 61.8125 64.59375 61.8125 55.328125 
Q 61.8125 49.125 58.421875 44.96875 
Q 55.03125 40.828125 48.390625 38.8125 
Q 55.8125 36.765625 59.59375 32.15625 
Q 63.375 27.546875 63.375 20.515625 
Q 63.375 9.671875 56.171875 4.125 
Q 48.96875 -1.421875 34.8125 -1.421875 
Q 20.609375 -1.421875 13.359375 4.125 
Q 6.109375 9.671875 6.109375 20.515625 
Q 6.109375 27.546875 9.890625 32.15625 
Q 13.671875 36.765625 21.09375 38.8125 
M 25.484375 53.421875 
Q 25.484375 49.078125 27.90625 46.734375 
Q 30.328125 44.390625 34.8125 44.390625 
Q 39.203125 44.390625 41.59375 46.734375 
Q 44 49.078125 44 53.421875 
Q 44 57.765625 41.59375 60.078125 
Q 39.203125 62.40625 34.8125 62.40625 
Q 30.328125 62.40625 27.90625 60.0625 
Q 25.484375 57.71875 25.484375 53.421875 
" id="BitstreamVeraSans-Bold-38"/>
     </defs>
     <g style="fill:#3f3d99;" transform="translate(109.913313286 134.102655763)scale(0.09 -0.09)">
      <use xlink:href="#BitstreamVeraSans-Bold-38"/>
      <use x="69.580078125" xlink:href="#BitstreamVeraSans-Bold-3a"/>
      <use x="109.5703125" xlink:href="#BitstreamVeraSans-Bold-33"/>
     </g>
    </g>
   </g>
   <g id="text_10">
    <g clip-path="url(#p51a516e676)">
     <!-- 9:3 -->
     <defs>
      <path d="M 10.015625 1.609375 
L 10.015625 15.09375 
Q 14.5 12.984375 18.59375 11.9375 
Q 22.703125 10.890625 26.703125 10.890625 
Q 35.109375 10.890625 39.796875 15.546875 
Q 44.484375 20.21875 45.3125 29.390625 
Q 42 26.953125 38.234375 25.734375 
Q 34.46875 24.515625 30.078125 24.515625 
Q 18.890625 24.515625 12.03125 31.03125 
Q 5.171875 37.546875 5.171875 48.1875 
Q 5.171875 59.96875 12.8125 67.046875 
Q 20.453125 74.125 33.296875 74.125 
Q 47.5625 74.125 55.375 64.5 
Q 63.1875 54.890625 63.1875 37.3125 
Q 63.1875 19.234375 54.046875 8.90625 
Q 44.921875 -1.421875 29 -1.421875 
Q 23.875 -1.421875 19.1875 -0.65625 
Q 14.5 0.09375 10.015625 1.609375 
M 33.203125 36.71875 
Q 38.140625 36.71875 40.625 39.90625 
Q 43.109375 43.109375 43.109375 49.515625 
Q 43.109375 55.859375 40.625 59.078125 
Q 38.140625 62.3125 33.203125 62.3125 
Q 28.265625 62.3125 25.78125 59.078125 
Q 23.296875 55.859375 23.296875 49.515625 
Q 23.296875 43.109375 25.78125 39.90625 
Q 28.265625 36.71875 33.203125 36.71875 
" id="BitstreamVeraSans-Bold-39"/>
     </defs>
     <g style="fill:#3f3d99;" transform="translate(132.247088909 153.36761779)scale(0.09 -0.09)">
      <use xlink:href="#BitstreamVeraSans-Bold-39"/>
      <use x="69.580078125" xlink:href="#BitstreamVeraSans-Bold-3a"/>
      <use x="109.5703125" xlink:href="#BitstreamVeraSans-Bold-33"/>
     </g>
    </g>
   </g>
   <g id="text_11">
    <g clip-path="url(#p51a516e676)">
     <!-- 10:3 -->
     <g style="fill:#3f3d99;" transform="translate(175.497842973 141.101050795)scale(0.09 -0.09)">
      <use xlink:href="#BitstreamVeraSans-Bold-31"/>
      <use x="69.580078125" xlink:href="#BitstreamVeraSans-Bold-30"/>
      <use x="139.16015625" xlink:href="#BitstreamVeraSans-Bold-3a"/>
      <use x="179.150390625" xlink:href="#BitstreamVeraSans-Bold-33"/>
     </g>
    </g>
   </g>
   <g id="text_12">
    <g clip-path="url(#p51a516e676)">
     <!-- 11:3 -->
     <g style="fill:#3f3d99;" transform="translate(222.818216447 156.004381213)scale(0.09 -0.09)">
      <use xlink:href="#BitstreamVeraSans-Bold-31"/>
      <use x="69.580078125" xlink:href="#BitstreamVeraSans-Bold-31"/>
      <use x="139.16015625" xlink:href="#BitstreamVeraSans-Bold-3a"/>
      <use x="179.150390625" xlink:href="#BitstreamVeraSans-Bold-33"/>
     </g>
    </g>
   </g>
   <g id="text_13">
    <g clip-path="url(#p51a516e676)">
     <!-- 12:3 -->
     <g style="fill:#3f3d99;" transform="translate(220.989880435 177.111572767)scale(0.09 -0.09)">
      <use xlink:href="#BitstreamVeraSans-Bold-31"/>
      <use x="69.580078125" xlink:href="#BitstreamVeraSans-Bold-32"/>
      <use x="139.16015625" xlink:href="#BitstreamVeraSans-Bold-3a"/>
      <use x="179.150390625" xlink:href="#BitstreamVeraSans-Bold-33"/>
     </g>
    </g>
   </g>
   <g id="text_14">
    <g clip-path="url(#p51a516e676)">
     <!-- 13:3 -->
     <g style="fill:#3f3d99;" transform="translate(275.105276434 180.199105576)scale(0.09 -0.09)">
      <use xlink:href="#BitstreamVeraSans-Bold-31"/>
      <use x="69.580078125" xlink:href="#BitstreamVeraSans-Bold-33"/>
      <use x="139.16015625" xlink:href="#BitstreamVeraSans-Bold-3a"/>
      <use x="179.150390625" xlink:href="#BitstreamVeraSans-Bold-33"/>
     </g>
    </g>
   </g>
   <g id="text_15">
    <g clip-path="url(#p51a516e676)">
     <!-- 14:3 -->
     <g style="fill:#3f3d99;" transform="translate(168.130519825 190.095765608)scale(0.09 -0.09)">
      <use xlink:href="#BitstreamVeraSans-Bold-31"/>
      <use x="69.580078125" xlink:href="#BitstreamVeraSans-Bold-34"/>
      <use x="139.16015625" xlink:href="#BitstreamVeraSans-Bold-3a"/>
      <use x="179.150390625" xlink:href="#BitstreamVeraSans-Bold-33"/>
     </g>
    </g>
   </g>
   <g id="text_16">
    <g clip-path="url(#p51a516e676)">
     <!-- 15:3 -->
     <g style="fill:#3f3d99;" transform="translate(125.363134159 178.126365092)scale(0.09 -0.09)">
      <use xlink:href="#BitstreamVeraSans-Bold-31"/>
      <use x="69.580078125" xlink:href="#BitstreamVeraSans-Bold-35"/>
      <use x="139.16015625" xlink:href="#BitstreamVeraSans-Bold-3a"/>
      <use x="179.150390625" xlink:href="#BitstreamVeraSans-Bold-33"/>
     </g>
    </g>
   </g>
   <g id="text_17">
    <g clip-path="url(#p51a516e676)">
     <!-- 16:3 -->
     <g style="fill:#3f3d99;" transform="translate(97.5865636696 195.870116561)scale(0.09 -0.09)">
      <use xlink:href="#BitstreamVeraSans-Bold-31"/>
      <use x="69.580078125" xlink:href="#BitstreamVeraSans-Bold-36"/>
      <use x="139.16015625" xlink:href="#BitstreamVeraSans-Bold-3a"/>
      <use x="179.150390625" xlink:href="#BitstreamVeraSans-Bold-33"/>
     </g>
    </g>
   </g>
   <g id="text_18">
    <g clip-path="url(#p51a516e676)">
     <!-- 17:3 -->
     <g style="fill:#3f3d99;" transform="translate(91.1267240349 212.608303105)scale(0.09 -0.09)">
      <use xlink:href="#BitstreamVeraSans-Bold-31"/>
      <use x="69.580078125" xlink:href="#BitstreamVeraSans-Bold-37"/>
      <use x="139.16015625" xlink:href="#BitstreamVeraSans-Bold-3a"/>
      <use x="179.150390625" xlink:href="#BitstreamVeraSans-Bold-33"/>
     </g>
    </g>
   </g>
   <g id="text_19">
    <g clip-path="url(#p51a516e676)">
     <!-- 18:3 -->
     <g style="fill:#3f3d99;" transform="translate(117.901242179 222.597723214)scale(0.09 -0.09)">
      <use xlink:href="#BitstreamVeraSans-Bold-31"/>
      <use x="69.580078125" xlink:href="#BitstreamVeraSans-Bold-38"/>
      <use x="139.16015625" xlink:href="#BitstreamVeraSans-Bold-3a"/>
      <use x="179.150390625" xlink:href="#BitstreamVeraSans-Bold-33"/>
     </g>
    </g>
   </g>
   <g id="text_20">
    <g clip-path="url(#p51a516e676)">
     <!-- 19:3 -->
     <g style="fill:#3f3d99;" transform="translate(147.941142891 209.270066003)scale(0.09 -0.09)">
      <use xlink:href="#BitstreamVeraSans-Bold-31"/>
      <use x="69.580078125" xlink:href="#BitstreamVeraSans-Bold-39"/>
      <use x="139.16015625" xlink:href="#BitstreamVeraSans-Bold-3a"/>
      <use x="179.150390625" xlink:href="#BitstreamVeraSans-Bold-33"/>
     </g>
    </g>
   </g>
   <g id="text_21">
    <g clip-path="url(#p51a516e676)">
     <!-- 20:6 -->
     <g style="fill:#3f3d99;" transform="translate(111.747276643 75.5251281352)scale(0.09 -0.09)">
      <use xlink:href="#BitstreamVeraSans-Bold-32"/>
      <use x="69.580078125" xlink:href="#BitstreamVeraSans-Bold-30"/>
      <use x="139.16015625" xlink:href="#BitstreamVeraSans-Bold-3a"/>
      <use x="179.150390625" xlink:href="#BitstreamVeraSans-Bold-36"/>
     </g>
    </g>
   </g>
   <g id="text_22">
    <g clip-path="url(#p51a516e676)">
     <!-- 21:7 -->
     <g style="fill:#3f3d99;" transform="translate(90.6362276786 69.0946506104)scale(0.09 -0.09)">
      <use xlink:href="#BitstreamVeraSans-Bold-32"/>
      <use x="69.580078125" xlink:href="#BitstreamVeraSans-Bold-31"/>
      <use x="139.16015625" xlink:href="#BitstreamVeraSans-Bold-3a"/>
      <use x="179.150390625" xlink:href="#BitstreamVeraSans-Bold-37"/>
     </g>
    </g>
   </g>
   <g id="text_23">
    <g clip-path="url(#p51a516e676)">
     <!-- 22:7 -->
     <g style="fill:#3f3d99;" transform="translate(112.202178489 63.1691517857)scale(0.09 -0.09)">
      <use xlink:href="#BitstreamVeraSans-Bold-32"/>
      <use x="69.580078125" xlink:href="#BitstreamVeraSans-Bold-32"/>
      <use x="139.16015625" xlink:href="#BitstreamVeraSans-Bold-3a"/>
      <use x="179.150390625" xlink:href="#BitstreamVeraSans-Bold-37"/>
     </g>
    </g>
   </g>
  </g>
 </g>
 <defs>
  <clipPath id="p51a516e676">
   <rect height="223.2" width="334.8" x="54.0" y="28.8"/>
  </clipPath>
 </defs>
</svg>
